<svg xmlns="http://www.w3.org/2000/svg" xmlns:xlink="http://www.w3.org/1999/xlink" width="400" zoomAndPan="magnify" viewBox="0 0 300 374.999991" height="500" preserveAspectRatio="xMidYMid meet" version="1.0"><defs><clipPath id="bec0bc25f8"><path d="M 26 263 L 116 263 L 116 347 L 26 347 Z M 26 263 " clip-rule="nonzero"/></clipPath><clipPath id="80589cbae8"><path d="M 23.707031 247.226562 L 130.878906 278.882812 L 102.414062 375.265625 L -4.761719 343.609375 Z M 23.707031 247.226562 " clip-rule="nonzero"/></clipPath><clipPath id="1366e37e39"><path d="M 23.707031 247.226562 L 130.878906 278.882812 L 102.414062 375.265625 L -4.761719 343.609375 Z M 23.707031 247.226562 " clip-rule="nonzero"/></clipPath><clipPath id="7fabac48ff"><path d="M 23.707031 247.226562 L 130.878906 278.882812 L 102.414062 375.265625 L -4.761719 343.609375 Z M 23.707031 247.226562 " clip-rule="nonzero"/></clipPath><clipPath id="00833645d4"><path d="M 15 275 L 105 275 L 105 360 L 15 360 Z M 15 275 " clip-rule="nonzero"/></clipPath><clipPath id="da2969eddc"><path d="M 23.707031 247.226562 L 130.878906 278.882812 L 102.414062 375.265625 L -4.761719 343.609375 Z M 23.707031 247.226562 " clip-rule="nonzero"/></clipPath><clipPath id="7d2aff3d90"><path d="M 23.707031 247.226562 L 130.878906 278.882812 L 102.414062 375.265625 L -4.761719 343.609375 Z M 23.707031 247.226562 " clip-rule="nonzero"/></clipPath><clipPath id="35cca2ece0"><path d="M 23.707031 247.226562 L 130.878906 278.882812 L 102.414062 375.265625 L -4.761719 343.609375 Z M 23.707031 247.226562 " clip-rule="nonzero"/></clipPath><clipPath id="8a29623d89"><path d="M 63.113281 16.804688 L 99.863281 16.804688 L 99.863281 54.304688 L 63.113281 54.304688 Z M 63.113281 16.804688 " clip-rule="nonzero"/></clipPath><clipPath id="580fc4c656"><path d="M 13.800781 16.804688 L 50.550781 16.804688 L 50.550781 54.304688 L 13.800781 54.304688 Z M 13.800781 16.804688 " clip-rule="nonzero"/></clipPath><clipPath id="5d430250ff"><path d="M 12.558594 70.144531 L 50.058594 70.144531 L 50.058594 109.144531 L 12.558594 109.144531 Z M 12.558594 70.144531 " clip-rule="nonzero"/></clipPath><clipPath id="0612961e09"><path d="M 213.621094 10.289062 L 292.828125 10.289062 L 292.828125 89.789062 L 213.621094 89.789062 Z M 213.621094 10.289062 " clip-rule="nonzero"/></clipPath><clipPath id="2a4be5c0eb"><path d="M 0 97 L 99.699219 97 L 99.699219 263 L 0 263 Z M 0 97 " clip-rule="nonzero"/></clipPath><clipPath id="98479b50ac"><path d="M 57.054688 86.871094 L 242.945312 86.871094 L 242.945312 272.765625 L 57.054688 272.765625 Z M 57.054688 86.871094 " clip-rule="nonzero"/></clipPath><clipPath id="a68641df6f"><path d="M 150 86.871094 C 98.667969 86.871094 57.054688 128.484375 57.054688 179.820312 C 57.054688 231.152344 98.667969 272.765625 150 272.765625 C 201.332031 272.765625 242.945312 231.152344 242.945312 179.820312 C 242.945312 128.484375 201.332031 86.871094 150 86.871094 " clip-rule="nonzero"/></clipPath><clipPath id="86bdcae1c5"><path d="M 88.210938 142.640625 L 103.277344 142.640625 L 103.277344 218.96875 L 88.210938 218.96875 Z M 88.210938 142.640625 " clip-rule="nonzero"/></clipPath><clipPath id="b09e1cec2c"><path d="M 102.429688 172.75 L 133.761719 172.75 L 133.761719 188 L 102.429688 188 Z M 102.429688 172.75 " clip-rule="nonzero"/></clipPath><clipPath id="ebcb9df44e"><path d="M 118.691406 142.640625 L 133.761719 142.640625 L 133.761719 157.902344 L 118.691406 157.902344 Z M 118.691406 142.640625 " clip-rule="nonzero"/></clipPath><clipPath id="f019f7ac72"><path d="M 202.542969 172.820312 L 217.785156 172.820312 L 217.785156 188.230469 L 202.542969 188.230469 Z M 202.542969 172.820312 " clip-rule="nonzero"/></clipPath><clipPath id="ee0a74cad5"><path d="M 202.542969 172.820312 L 217.785156 172.820312 L 217.785156 219.035156 L 202.542969 219.035156 Z M 202.542969 172.820312 " clip-rule="nonzero"/></clipPath><clipPath id="807beb3354"><path d="M 202.714844 142.707031 L 217.785156 142.707031 L 217.785156 157.972656 L 202.714844 157.972656 Z M 202.714844 142.707031 " clip-rule="nonzero"/></clipPath><clipPath id="cc58bf12f5"><path d="M 142.113281 142.640625 L 151.558594 142.640625 L 151.558594 218.96875 L 142.113281 218.96875 Z M 142.113281 142.640625 " clip-rule="nonzero"/></clipPath><clipPath id="47fcbd3521"><path d="M 176 142 L 210 142 L 210 192 L 176 192 Z M 176 142 " clip-rule="nonzero"/></clipPath><clipPath id="29ed2b53e2"><path d="M 202.214844 142.710938 L 209.765625 147.046875 L 183.746094 192.363281 L 176.195312 188.027344 Z M 202.214844 142.710938 " clip-rule="nonzero"/></clipPath><clipPath id="b744993032"><path d="M 202.214844 142.710938 L 209.761719 147.042969 L 184.085938 191.761719 L 176.539062 187.425781 Z M 202.214844 142.710938 " clip-rule="nonzero"/></clipPath><clipPath id="95ad882e9e"><path d="M 169 188 L 187 188 L 187 204 L 169 204 Z M 169 188 " clip-rule="nonzero"/></clipPath><clipPath id="7af419a2c6"><path d="M 185.765625 203.480469 L 168.722656 203.144531 L 169.019531 188.230469 L 186.0625 188.570312 Z M 185.765625 203.480469 " clip-rule="nonzero"/></clipPath><clipPath id="3468fa6dd6"><path d="M 177.328125 203.3125 L 169.191406 188.234375 L 186.0625 188.570312 L 177.328125 203.3125 " clip-rule="nonzero"/></clipPath><clipPath id="2de624bdd5"><path d="M 200.292969 97 L 299.726562 97 L 299.726562 263 L 200.292969 263 Z M 200.292969 97 " clip-rule="nonzero"/></clipPath><clipPath id="e1fbee0061"><path d="M 96 115 L 198 115 L 198 245 L 96 245 Z M 96 115 " clip-rule="nonzero"/></clipPath><clipPath id="f0b656bf74"><path d="M 93.789062 240.886719 L 191.613281 112.347656 L 200.222656 118.898438 L 102.402344 247.4375 Z M 93.789062 240.886719 " clip-rule="nonzero"/></clipPath><clipPath id="6378ded882"><path d="M 93.789062 240.886719 L 191.613281 112.347656 L 200.222656 118.898438 L 102.402344 247.4375 Z M 93.789062 240.886719 " clip-rule="nonzero"/></clipPath><clipPath id="2c4f805154"><path d="M 144 142 L 183 142 L 183 199 L 144 199 Z M 144 142 " clip-rule="nonzero"/></clipPath><clipPath id="baf6d72525"><path d="M 144.394531 147.460938 L 153.144531 142.296875 L 183.769531 194.171875 L 175.015625 199.335938 Z M 144.394531 147.460938 " clip-rule="nonzero"/></clipPath><clipPath id="c23f7c39f5"><path d="M 144.394531 147.460938 L 152.5625 142.640625 L 182.992188 194.191406 L 174.824219 199.011719 Z M 144.394531 147.460938 " clip-rule="nonzero"/></clipPath><clipPath id="0dd2f9271b"><path d="M 118.519531 172.75 L 133.761719 172.75 L 133.761719 218.96875 L 118.519531 218.96875 Z M 118.519531 172.75 " clip-rule="nonzero"/></clipPath></defs><g clip-path="url(#bec0bc25f8)"><g clip-path="url(#80589cbae8)"><g clip-path="url(#1366e37e39)"><g clip-path="url(#7fabac48ff)"><path fill="#f1e784" d="M 45.324219 325.917969 C 40.449219 321.132812 27.578125 323.09375 27.265625 316.257812 C 26.792969 305.875 24.617188 269.21875 42.488281 263.636719 C 60.359375 258.050781 67.921875 297.722656 80.09375 306.632812 C 90.027344 313.902344 113.195312 311.117188 115.503906 317.089844 C 117.8125 323.066406 103.730469 337.792969 93.941406 342.480469 C 84.152344 347.171875 64.867188 347.980469 56.761719 345.21875 C 49.695312 342.8125 50.238281 330.746094 45.324219 325.917969 Z M 45.324219 325.917969 " fill-opacity="1" fill-rule="evenodd"/></g></g></g></g><g clip-path="url(#00833645d4)"><g clip-path="url(#da2969eddc)"><g clip-path="url(#7d2aff3d90)"><g clip-path="url(#35cca2ece0)"><path stroke-linecap="round" transform="matrix(0.0404337, 0.0119426, -0.01198, 0.0405604, 15.091825, 237.053816)" fill="none" stroke-linejoin="round" d="M 1110.063509 2170.222626 C 967.108727 2094.338025 687.410902 2225.037991 634.46254 2072.090861 C 553.978017 1839.901031 258.086969 1023.182003 627.103876 776.906488 C 996.183395 530.516231 1434.75429 1379.477451 1771.408677 1500.029535 C 2046.240207 1598.432046 2554.51239 1380.01386 2647.155421 1499.989505 C 2739.824696 1620.053729 2518.52739 2048.289463 2327.345596 2220.149139 C 2136.10119 2392.123558 1702.846712 2539.625997 1500.002044 2531.262304 C 1323.003924 2524.052319 1254.373269 2246.767644 1110.063509 2170.222626 Z M 1110.063509 2170.222626 " stroke="#fead00" stroke-width="19.049999" stroke-opacity="1" stroke-miterlimit="1.5"/></g></g></g></g><g clip-path="url(#8a29623d89)"><path fill="#ffffff" d="M 81.539062 54.25 C 81.320312 54.25 81.105469 54.21875 80.894531 54.148438 L 68.679688 50.105469 C 68.3125 49.984375 68.003906 49.777344 67.757812 49.480469 C 67.507812 49.183594 67.359375 48.847656 67.304688 48.464844 L 63.234375 19.160156 C 63.195312 18.871094 63.214844 18.585938 63.300781 18.308594 C 63.382812 18.027344 63.523438 17.777344 63.714844 17.554688 C 63.910156 17.335938 64.140625 17.164062 64.40625 17.042969 C 64.675781 16.921875 64.957031 16.863281 65.25 16.863281 L 97.828125 16.863281 C 98.121094 16.863281 98.402344 16.921875 98.671875 17.042969 C 98.9375 17.164062 99.167969 17.335938 99.363281 17.554688 C 99.554688 17.773438 99.695312 18.023438 99.777344 18.304688 C 99.863281 18.585938 99.882812 18.871094 99.84375 19.160156 L 95.773438 48.464844 C 95.71875 48.84375 95.570312 49.183594 95.320312 49.480469 C 95.074219 49.777344 94.765625 49.984375 94.398438 50.105469 L 82.183594 54.148438 C 81.972656 54.21875 81.757812 54.25 81.539062 54.25 Z M 71.167969 46.671875 L 81.539062 50.097656 L 91.910156 46.664062 L 95.492188 20.902344 L 67.59375 20.902344 Z M 71.167969 46.671875 " fill-opacity="1" fill-rule="nonzero"/></g><path fill="#ffffff" d="M 78.484375 45.15625 C 78.164062 45.15625 77.859375 45.085938 77.574219 44.941406 L 73.5 42.921875 C 73.261719 42.800781 73.050781 42.640625 72.875 42.4375 C 72.695312 42.234375 72.566406 42.007812 72.480469 41.753906 C 72.394531 41.5 72.359375 41.238281 72.378906 40.96875 C 72.398438 40.703125 72.46875 40.449219 72.589844 40.207031 C 72.710938 39.96875 72.875 39.761719 73.078125 39.585938 C 73.28125 39.410156 73.511719 39.28125 73.769531 39.195312 C 74.023438 39.109375 74.289062 39.078125 74.558594 39.097656 C 74.828125 39.117188 75.082031 39.1875 75.324219 39.304688 L 76.449219 39.863281 L 76.449219 28.988281 L 72.375 28.988281 C 72.105469 28.988281 71.847656 28.9375 71.597656 28.832031 C 71.347656 28.730469 71.128906 28.585938 70.9375 28.394531 C 70.746094 28.207031 70.597656 27.988281 70.496094 27.738281 C 70.390625 27.492188 70.339844 27.234375 70.339844 26.964844 C 70.339844 26.699219 70.390625 26.441406 70.496094 26.191406 C 70.597656 25.945312 70.746094 25.726562 70.9375 25.539062 C 71.128906 25.347656 71.347656 25.203125 71.597656 25.097656 C 71.847656 24.996094 72.105469 24.945312 72.375 24.945312 L 78.484375 24.945312 C 78.753906 24.945312 79.015625 24.996094 79.265625 25.097656 C 79.511719 25.203125 79.734375 25.347656 79.925781 25.539062 C 80.117188 25.726562 80.261719 25.945312 80.367188 26.191406 C 80.46875 26.441406 80.519531 26.699219 80.519531 26.964844 L 80.519531 43.132812 C 80.519531 43.402344 80.46875 43.660156 80.367188 43.90625 C 80.261719 44.15625 80.117188 44.375 79.925781 44.5625 C 79.734375 44.753906 79.511719 44.898438 79.265625 45 C 79.015625 45.105469 78.753906 45.15625 78.484375 45.15625 Z M 78.484375 45.15625 " fill-opacity="1" fill-rule="nonzero"/><path fill="#ffffff" d="M 84.59375 45.15625 C 84.34375 45.15625 84.105469 45.113281 83.871094 45.023438 C 83.640625 44.9375 83.429688 44.8125 83.246094 44.648438 C 83.058594 44.484375 82.910156 44.292969 82.792969 44.074219 C 82.675781 43.855469 82.605469 43.625 82.574219 43.382812 C 82.542969 43.136719 82.558594 42.894531 82.617188 42.65625 C 82.675781 42.414062 82.777344 42.195312 82.917969 41.992188 C 83.058594 41.789062 83.230469 41.617188 83.433594 41.476562 C 83.636719 41.335938 83.859375 41.234375 84.101562 41.175781 L 86.847656 40.492188 L 87.335938 37.070312 L 85.609375 37.070312 C 85.207031 37.070312 84.816406 36.996094 84.441406 36.839844 C 84.066406 36.6875 83.738281 36.46875 83.453125 36.183594 C 83.164062 35.898438 82.945312 35.570312 82.789062 35.199219 C 82.632812 34.828125 82.558594 34.441406 82.558594 34.039062 L 82.558594 27.976562 C 82.558594 27.574219 82.632812 27.1875 82.789062 26.816406 C 82.945312 26.445312 83.164062 26.117188 83.453125 25.832031 C 83.738281 25.550781 84.066406 25.332031 84.441406 25.175781 C 84.816406 25.023438 85.207031 24.945312 85.609375 24.945312 L 90.699219 24.945312 C 90.972656 24.945312 91.230469 24.996094 91.480469 25.097656 C 91.730469 25.203125 91.949219 25.347656 92.140625 25.539062 C 92.332031 25.726562 92.480469 25.945312 92.582031 26.191406 C 92.683594 26.441406 92.738281 26.699219 92.738281 26.964844 C 92.738281 27.234375 92.683594 27.492188 92.582031 27.738281 C 92.480469 27.988281 92.332031 28.207031 92.140625 28.394531 C 91.949219 28.585938 91.730469 28.730469 91.480469 28.832031 C 91.230469 28.9375 90.972656 28.988281 90.699219 28.988281 L 86.628906 28.988281 L 86.628906 33.03125 L 88.507812 33.03125 C 88.914062 33.03125 89.304688 33.105469 89.675781 33.261719 C 90.050781 33.414062 90.382812 33.632812 90.667969 33.917969 C 90.953125 34.203125 91.175781 34.53125 91.328125 34.902344 C 91.484375 35.273438 91.5625 35.660156 91.5625 36.0625 C 91.5625 36.207031 91.550781 36.351562 91.53125 36.496094 L 90.679688 42.410156 C 90.621094 42.816406 90.453125 43.171875 90.175781 43.476562 C 89.898438 43.78125 89.558594 43.984375 89.160156 44.085938 L 85.085938 45.09375 C 84.925781 45.136719 84.761719 45.15625 84.59375 45.15625 Z M 87.5 35.917969 Z M 87.5 35.917969 " fill-opacity="1" fill-rule="nonzero"/><g clip-path="url(#580fc4c656)"><path fill="#ffffff" d="M 32.226562 54.25 C 32.007812 54.25 31.792969 54.21875 31.582031 54.148438 L 19.367188 50.105469 C 19 49.984375 18.691406 49.777344 18.445312 49.480469 C 18.195312 49.183594 18.046875 48.847656 17.992188 48.464844 L 13.921875 19.160156 C 13.882812 18.871094 13.902344 18.585938 13.988281 18.308594 C 14.070312 18.027344 14.210938 17.777344 14.402344 17.554688 C 14.597656 17.335938 14.828125 17.164062 15.09375 17.042969 C 15.363281 16.921875 15.644531 16.863281 15.9375 16.863281 L 48.515625 16.863281 C 48.808594 16.863281 49.089844 16.921875 49.359375 17.042969 C 49.625 17.164062 49.855469 17.335938 50.050781 17.554688 C 50.242188 17.773438 50.382812 18.023438 50.464844 18.304688 C 50.550781 18.585938 50.570312 18.871094 50.53125 19.160156 L 46.460938 48.464844 C 46.40625 48.84375 46.257812 49.183594 46.007812 49.480469 C 45.761719 49.777344 45.453125 49.984375 45.085938 50.105469 L 32.871094 54.148438 C 32.660156 54.21875 32.445312 54.25 32.226562 54.25 Z M 21.855469 46.671875 L 32.226562 50.097656 L 42.597656 46.664062 L 46.179688 20.902344 L 18.28125 20.902344 Z M 21.855469 46.671875 " fill-opacity="1" fill-rule="nonzero"/></g><path fill="#ffffff" d="M 32.226562 45.660156 C 32.027344 45.660156 31.832031 45.632812 31.640625 45.574219 L 26.550781 44.058594 C 26.191406 43.953125 25.882812 43.761719 25.632812 43.484375 C 25.378906 43.207031 25.214844 42.886719 25.140625 42.519531 L 24.9375 41.511719 C 24.886719 41.257812 24.882812 41 24.933594 40.746094 C 24.980469 40.492188 25.074219 40.253906 25.214844 40.035156 C 25.355469 39.8125 25.53125 39.628906 25.742188 39.476562 C 25.953125 39.324219 26.1875 39.21875 26.441406 39.15625 C 26.695312 39.089844 26.953125 39.078125 27.210938 39.113281 C 27.46875 39.148438 27.714844 39.230469 27.941406 39.359375 C 28.167969 39.488281 28.363281 39.652344 28.527344 39.855469 C 28.6875 40.058594 28.808594 40.285156 28.882812 40.535156 L 32.226562 41.53125 L 35.484375 40.558594 L 35.988281 37.070312 L 26.117188 37.070312 C 25.871094 37.070312 25.628906 37.027344 25.398438 36.941406 C 25.167969 36.855469 24.957031 36.730469 24.773438 36.566406 C 24.585938 36.402344 24.433594 36.210938 24.320312 35.996094 C 24.203125 35.777344 24.128906 35.546875 24.097656 35.300781 L 23.082031 27.21875 C 23.042969 26.929688 23.070312 26.648438 23.15625 26.371094 C 23.242188 26.09375 23.382812 25.847656 23.574219 25.628906 C 23.769531 25.414062 23.996094 25.242188 24.261719 25.125 C 24.53125 25.003906 24.808594 24.945312 25.101562 24.945312 L 39.351562 24.945312 C 39.621094 24.945312 39.882812 24.996094 40.132812 25.097656 C 40.382812 25.203125 40.601562 25.347656 40.792969 25.539062 C 40.984375 25.726562 41.128906 25.945312 41.234375 26.191406 C 41.335938 26.441406 41.390625 26.699219 41.390625 26.964844 C 41.390625 27.234375 41.335938 27.492188 41.234375 27.738281 C 41.128906 27.988281 40.984375 28.207031 40.792969 28.394531 C 40.601562 28.585938 40.382812 28.730469 40.132812 28.832031 C 39.882812 28.9375 39.621094 28.988281 39.351562 28.988281 L 27.40625 28.988281 L 27.917969 33.03125 L 38.335938 33.03125 C 38.628906 33.03125 38.910156 33.089844 39.179688 33.210938 C 39.449219 33.332031 39.679688 33.503906 39.871094 33.726562 C 40.066406 33.949219 40.203125 34.199219 40.289062 34.480469 C 40.371094 34.761719 40.390625 35.046875 40.351562 35.335938 L 39.332031 42.410156 C 39.277344 42.800781 39.117188 43.144531 38.859375 43.441406 C 38.601562 43.742188 38.28125 43.945312 37.902344 44.058594 L 32.8125 45.574219 C 32.621094 45.632812 32.425781 45.660156 32.226562 45.660156 Z M 32.226562 45.660156 " fill-opacity="1" fill-rule="nonzero"/><g clip-path="url(#5d430250ff)"><path fill="#ffffff" d="M 31.359375 109.085938 C 31.136719 109.085938 30.917969 109.050781 30.703125 108.980469 L 18.238281 104.777344 C 17.863281 104.652344 17.550781 104.433594 17.296875 104.125 C 17.042969 103.820312 16.890625 103.46875 16.835938 103.070312 L 12.683594 72.59375 C 12.640625 72.292969 12.664062 71.996094 12.75 71.707031 C 12.835938 71.414062 12.976562 71.152344 13.171875 70.925781 C 13.371094 70.695312 13.605469 70.515625 13.878906 70.390625 C 14.152344 70.265625 14.441406 70.203125 14.738281 70.203125 L 47.980469 70.203125 C 48.28125 70.203125 48.566406 70.265625 48.839844 70.390625 C 49.113281 70.515625 49.351562 70.695312 49.546875 70.921875 C 49.746094 71.152344 49.886719 71.414062 49.972656 71.703125 C 50.058594 71.996094 50.078125 72.289062 50.039062 72.589844 L 45.882812 103.066406 C 45.832031 103.464844 45.675781 103.816406 45.425781 104.125 C 45.171875 104.433594 44.859375 104.652344 44.484375 104.777344 L 32.015625 108.980469 C 31.804688 109.050781 31.585938 109.085938 31.359375 109.085938 Z M 20.777344 101.203125 L 31.359375 104.769531 L 41.945312 101.195312 L 45.597656 74.40625 L 17.128906 74.40625 Z M 20.777344 101.203125 " fill-opacity="1" fill-rule="nonzero"/></g><path fill="#ffffff" d="M 31.359375 100.152344 C 31.15625 100.152344 30.957031 100.125 30.761719 100.066406 L 25.570312 98.488281 C 25.203125 98.378906 24.890625 98.175781 24.628906 97.890625 C 24.371094 97.601562 24.207031 97.269531 24.128906 96.886719 L 23.921875 95.835938 C 23.871094 95.574219 23.867188 95.308594 23.917969 95.042969 C 23.964844 94.777344 24.0625 94.527344 24.203125 94.300781 C 24.347656 94.074219 24.527344 93.878906 24.742188 93.722656 C 24.960938 93.5625 25.199219 93.453125 25.457031 93.386719 C 25.714844 93.320312 25.976562 93.308594 26.242188 93.34375 C 26.507812 93.378906 26.753906 93.464844 26.988281 93.597656 C 27.21875 93.734375 27.417969 93.90625 27.585938 94.117188 C 27.75 94.328125 27.871094 94.5625 27.949219 94.820312 L 31.359375 95.855469 L 34.683594 94.847656 L 35.199219 91.21875 L 29.28125 91.21875 C 28.851562 91.222656 28.457031 91.097656 28.097656 90.851562 C 27.742188 90.601562 27.488281 90.273438 27.335938 89.863281 C 27.179688 89.457031 27.15625 89.039062 27.261719 88.613281 C 27.363281 88.1875 27.578125 87.832031 27.902344 87.542969 L 33.167969 82.8125 L 24.089844 82.8125 C 23.8125 82.8125 23.546875 82.761719 23.292969 82.652344 C 23.039062 82.546875 22.816406 82.394531 22.621094 82.199219 C 22.425781 82 22.273438 81.773438 22.167969 81.515625 C 22.0625 81.257812 22.011719 80.992188 22.011719 80.710938 C 22.011719 80.433594 22.0625 80.164062 22.167969 79.90625 C 22.273438 79.648438 22.425781 79.421875 22.621094 79.226562 C 22.816406 79.027344 23.039062 78.875 23.292969 78.769531 C 23.546875 78.664062 23.8125 78.609375 24.089844 78.609375 L 38.632812 78.609375 C 39.066406 78.609375 39.460938 78.730469 39.816406 78.980469 C 40.171875 79.226562 40.425781 79.554688 40.582031 79.964844 C 40.734375 80.375 40.757812 80.792969 40.65625 81.214844 C 40.550781 81.640625 40.335938 82 40.011719 82.289062 L 34.746094 87.015625 L 37.59375 87.015625 C 37.894531 87.015625 38.183594 87.082031 38.457031 87.207031 C 38.730469 87.332031 38.964844 87.511719 39.164062 87.742188 C 39.359375 87.972656 39.5 88.234375 39.585938 88.527344 C 39.671875 88.816406 39.691406 89.113281 39.648438 89.417969 L 38.613281 96.773438 C 38.554688 97.179688 38.394531 97.535156 38.128906 97.847656 C 37.867188 98.15625 37.539062 98.371094 37.152344 98.488281 L 31.957031 100.066406 C 31.761719 100.125 31.5625 100.152344 31.359375 100.152344 Z M 31.359375 100.152344 " fill-opacity="1" fill-rule="nonzero"/><g clip-path="url(#0612961e09)"><path fill="#ffffff" d="M 284.875 81.839844 L 268.976562 81.839844 L 268.976562 65.9375 L 284.875 65.9375 Z M 292.828125 89.789062 L 261.027344 89.789062 L 261.027344 57.988281 L 292.828125 57.988281 Z M 237.175781 34.140625 L 221.277344 34.140625 L 221.277344 18.238281 L 237.175781 18.238281 Z M 245.125 42.089844 L 213.328125 42.089844 L 213.328125 10.289062 L 245.125 10.289062 Z M 237.175781 50.039062 L 237.175781 57.988281 L 233.203125 57.988281 L 233.203125 69.914062 L 245.125 69.914062 L 245.125 65.9375 L 253.078125 65.9375 L 253.078125 81.839844 L 245.125 81.839844 L 245.125 77.863281 L 225.25 77.863281 L 225.25 57.988281 L 221.277344 57.988281 L 221.277344 50.039062 Z M 261.027344 34.140625 L 261.027344 30.164062 L 272.953125 30.164062 L 272.953125 42.089844 L 268.976562 42.089844 L 268.976562 50.039062 L 284.875 50.039062 L 284.875 42.089844 L 280.902344 42.089844 L 280.902344 22.214844 L 261.027344 22.214844 L 261.027344 18.238281 L 253.078125 18.238281 L 253.078125 34.140625 Z M 261.027344 34.140625 " fill-opacity="1" fill-rule="evenodd"/></g><path fill="#ffffff" d="M 284.980469 315.207031 C 285.355469 315.242188 285.734375 315.292969 286.109375 315.363281 L 280.179688 325.636719 C 279.023438 327.644531 279.707031 330.207031 281.714844 331.363281 C 283.71875 332.523438 286.285156 331.835938 287.441406 329.832031 L 293.371094 319.558594 C 296.738281 323.496094 297.441406 329.28125 294.703125 334.023438 C 292.175781 338.402344 287.40625 340.6875 282.679688 340.265625 L 271.785156 359.132812 C 270.339844 361.636719 267.132812 362.496094 264.625 361.050781 C 262.394531 359.761719 261.46875 357.082031 262.316406 354.738281 C 262.417969 354.449219 262.550781 354.164062 262.707031 353.890625 L 273.582031 335.058594 C 270.800781 331.167969 270.371094 325.855469 272.917969 321.445312 C 275.039062 317.769531 278.738281 315.570312 282.664062 315.207031 C 283.429688 315.136719 284.203125 315.136719 284.980469 315.207031 Z M 272.917969 290.050781 C 276.082031 290.050781 278.972656 291.21875 281.179688 293.148438 L 281.71875 293.644531 L 281.902344 293.644531 L 281.902344 293.828125 C 283.953125 295.921875 285.277344 298.730469 285.46875 301.84375 L 285.496094 302.628906 L 285.496094 311.648438 C 283.355469 311.425781 281.207031 311.632812 279.171875 312.242188 L 278.308594 312.527344 L 278.308594 308.019531 L 227.996094 308.019531 L 227.996094 342.160156 C 227.996094 344.960938 230.132812 347.265625 232.867188 347.527344 L 233.386719 347.550781 L 262.21875 347.550781 L 259.597656 352.09375 C 259.230469 352.726562 258.953125 353.386719 258.757812 354.0625 L 258.589844 354.738281 L 233.386719 354.738281 C 226.671875 354.738281 221.183594 349.476562 220.824219 342.851562 L 220.808594 342.160156 L 220.808594 302.628906 C 220.808594 299.464844 221.976562 296.574219 223.902344 294.363281 L 224.402344 293.828125 L 224.402344 293.644531 L 224.582031 293.644531 C 226.675781 291.59375 229.484375 290.265625 232.601562 290.074219 L 233.386719 290.050781 Z M 257.285156 315.847656 C 257.910156 315.222656 258.878906 315.152344 259.578125 315.640625 L 259.828125 315.847656 L 268.050781 324.082031 C 267.539062 326.289062 267.507812 328.550781 267.917969 330.722656 L 268.121094 331.648438 L 259.828125 339.949219 C 259.125 340.652344 257.988281 340.652344 257.285156 339.953125 C 256.664062 339.328125 256.59375 338.359375 257.078125 337.660156 L 257.285156 337.410156 L 266.785156 327.898438 L 257.285156 318.386719 C 256.582031 317.683594 256.585938 316.546875 257.285156 315.847656 Z M 249.042969 315.847656 C 249.746094 316.550781 249.746094 317.6875 249.042969 318.390625 L 239.523438 327.898438 L 249.042969 337.410156 C 249.746094 338.109375 249.746094 339.246094 249.042969 339.949219 C 248.34375 340.652344 247.203125 340.652344 246.503906 339.953125 L 235.710938 329.171875 C 235.371094 328.832031 235.183594 328.375 235.183594 327.898438 C 235.183594 327.421875 235.371094 326.964844 235.710938 326.628906 L 246.503906 315.847656 C 247.203125 315.144531 248.34375 315.144531 249.042969 315.847656 Z M 249.042969 315.847656 " fill-opacity="1" fill-rule="nonzero"/><g clip-path="url(#2a4be5c0eb)"><path fill="#ffffff" d="M 82.296875 262.835938 L 0.015625 180.210938 L 82.871094 97.015625 L 99.71875 113.929688 L 33.710938 180.210938 L 99.144531 245.917969 L 82.296875 262.835938 " fill-opacity="1" fill-rule="nonzero"/></g><g clip-path="url(#98479b50ac)"><g clip-path="url(#a68641df6f)"><path fill="#f7d101" d="M 57.054688 86.871094 L 242.945312 86.871094 L 242.945312 272.765625 L 57.054688 272.765625 Z M 57.054688 86.871094 " fill-opacity="1" fill-rule="nonzero"/></g></g><g clip-path="url(#86bdcae1c5)"><path fill="#222222" d="M 88.210938 142.640625 L 103.449219 142.640625 L 103.449219 218.847656 L 88.210938 218.847656 Z M 88.210938 142.640625 " fill-opacity="1" fill-rule="nonzero"/></g><g clip-path="url(#b09e1cec2c)"><path fill="#222222" d="M 102.429688 172.75 L 133.636719 172.75 L 133.636719 187.992188 L 102.429688 187.992188 Z M 102.429688 172.75 " fill-opacity="1" fill-rule="nonzero"/></g><g clip-path="url(#ebcb9df44e)"><path fill="#222222" d="M 118.691406 142.640625 L 133.933594 142.640625 L 133.933594 157.882812 L 118.691406 157.882812 Z M 118.691406 142.640625 " fill-opacity="1" fill-rule="nonzero"/></g><g clip-path="url(#f019f7ac72)"><path fill="#222222" d="M 202.542969 172.820312 L 217.785156 172.820312 L 217.785156 188.0625 L 202.542969 188.0625 Z M 202.542969 172.820312 " fill-opacity="1" fill-rule="nonzero"/></g><g clip-path="url(#ee0a74cad5)"><path fill="#222222" d="M 202.542969 172.820312 L 217.785156 172.820312 L 217.785156 219.269531 L 202.542969 219.269531 Z M 202.542969 172.820312 " fill-opacity="1" fill-rule="nonzero"/></g><g clip-path="url(#807beb3354)"><path fill="#222222" d="M 202.714844 142.707031 L 217.957031 142.707031 L 217.957031 157.949219 L 202.714844 157.949219 Z M 202.714844 142.707031 " fill-opacity="1" fill-rule="nonzero"/></g><g clip-path="url(#cc58bf12f5)"><path fill="#222222" d="M 142.113281 142.640625 L 151.550781 142.640625 L 151.550781 218.847656 L 142.113281 218.847656 Z M 142.113281 142.640625 " fill-opacity="1" fill-rule="nonzero"/></g><g clip-path="url(#47fcbd3521)"><g clip-path="url(#29ed2b53e2)"><g clip-path="url(#b744993032)"><path fill="#222222" d="M 202.214844 142.710938 L 209.765625 147.046875 L 184.109375 191.734375 L 176.554688 187.398438 Z M 202.214844 142.710938 " fill-opacity="1" fill-rule="nonzero"/></g></g></g><g clip-path="url(#95ad882e9e)"><g clip-path="url(#7af419a2c6)"><g clip-path="url(#3468fa6dd6)"><path fill="#222222" d="M 185.765625 203.480469 L 168.988281 203.148438 L 169.285156 188.234375 L 186.0625 188.570312 Z M 185.765625 203.480469 " fill-opacity="1" fill-rule="nonzero"/></g></g></g><g clip-path="url(#2de624bdd5)"><path fill="#ffffff" d="M 217.695312 262.835938 L 299.976562 180.210938 L 217.121094 97.015625 L 200.273438 113.929688 L 266.28125 180.210938 L 200.84375 245.917969 L 217.695312 262.835938 " fill-opacity="1" fill-rule="nonzero"/></g><g clip-path="url(#e1fbee0061)"><g clip-path="url(#f0b656bf74)"><g clip-path="url(#6378ded882)"><path fill="#ffffff" d="M 187.496094 117.757812 L 97.90625 235.476562 C 96.140625 237.796875 96.636719 241.148438 99.011719 242.957031 C 101.390625 244.765625 104.75 244.351562 106.519531 242.027344 L 196.105469 124.308594 C 197.871094 121.988281 197.375 118.636719 195 116.828125 C 192.621094 115.019531 189.261719 115.433594 187.496094 117.757812 Z M 187.496094 117.757812 " fill-opacity="1" fill-rule="nonzero"/></g></g></g><g clip-path="url(#2c4f805154)"><g clip-path="url(#baf6d72525)"><g clip-path="url(#c23f7c39f5)"><path fill="#222222" d="M 144.394531 147.460938 L 152.519531 142.664062 L 182.773438 193.914062 L 174.648438 198.710938 Z M 144.394531 147.460938 " fill-opacity="1" fill-rule="nonzero"/></g></g></g><g clip-path="url(#0dd2f9271b)"><path fill="#222222" d="M 118.519531 172.75 L 133.761719 172.75 L 133.761719 219.203125 L 118.519531 219.203125 Z M 118.519531 172.75 " fill-opacity="1" fill-rule="nonzero"/></g></svg>