<svg id="visual" viewBox="0 0 900 450" width="900" height="450" xmlns="http://www.w3.org/2000/svg" xmlns:xlink="http://www.w3.org/1999/xlink" version="1.1"><rect x="0" y="0" width="900" height="450" fill="#1f242d"></rect><path d="M0 342L21.5 347.8C43 353.7 86 365.3 128.8 372C171.7 378.7 214.3 380.3 257.2 376.5C300 372.7 343 363.3 385.8 361.8C428.7 360.3 471.3 366.7 514.2 368.2C557 369.7 600 366.3 642.8 367C685.7 367.7 728.3 372.3 771.2 373.8C814 375.3 857 373.7 878.5 372.8L900 372L900 451L878.5 451C857 451 814 451 771.2 451C728.3 451 685.7 451 642.8 451C600 451 557 451 514.2 451C471.3 451 428.7 451 385.8 451C343 451 300 451 257.2 451C214.3 451 171.7 451 128.8 451C86 451 43 451 21.5 451L0 451Z" fill="#0f00ab"></path><path d="M0 357L21.5 364.5C43 372 86 387 128.8 385.5C171.7 384 214.3 366 257.2 362.8C300 359.7 343 371.3 385.8 371.7C428.7 372 471.3 361 514.2 361.7C557 362.3 600 374.7 642.8 382.5C685.7 390.3 728.3 393.7 771.2 388.7C814 383.7 857 370.3 878.5 363.7L900 357L900 451L878.5 451C857 451 814 451 771.2 451C728.3 451 685.7 451 642.8 451C600 451 557 451 514.2 451C471.3 451 428.7 451 385.8 451C343 451 300 451 257.2 451C214.3 451 171.7 451 128.8 451C86 451 43 451 21.5 451L0 451Z" fill="#0e0097"></path><path d="M0 387L21.5 386C43 385 86 383 128.8 383.2C171.7 383.3 214.3 385.7 257.2 388.2C300 390.7 343 393.3 385.8 393.7C428.7 394 471.3 392 514.2 388.3C557 384.7 600 379.3 642.8 376C685.7 372.7 728.3 371.3 771.2 371.5C814 371.7 857 373.3 878.5 374.2L900 375L900 451L878.5 451C857 451 814 451 771.2 451C728.3 451 685.7 451 642.8 451C600 451 557 451 514.2 451C471.3 451 428.7 451 385.8 451C343 451 300 451 257.2 451C214.3 451 171.7 451 128.8 451C86 451 43 451 21.5 451L0 451Z" fill="#0c0083"></path><path d="M0 417L21.5 414.5C43 412 86 407 128.8 402.5C171.7 398 214.3 394 257.2 395C300 396 343 402 385.8 403.7C428.7 405.3 471.3 402.7 514.2 405.8C557 409 600 418 642.8 419.2C685.7 420.3 728.3 413.7 771.2 409.3C814 405 857 403 878.5 402L900 401L900 451L878.5 451C857 451 814 451 771.2 451C728.3 451 685.7 451 642.8 451C600 451 557 451 514.2 451C471.3 451 428.7 451 385.8 451C343 451 300 451 257.2 451C214.3 451 171.7 451 128.8 451C86 451 43 451 21.5 451L0 451Z" fill="#0a0070"></path><path d="M0 429L21.5 428.3C43 427.7 86 426.3 128.8 423.7C171.7 421 214.3 417 257.2 417C300 417 343 421 385.8 420.8C428.7 420.7 471.3 416.3 514.2 418.7C557 421 600 430 642.8 434.5C685.7 439 728.3 439 771.2 436.3C814 433.7 857 428.3 878.5 425.7L900 423L900 451L878.5 451C857 451 814 451 771.2 451C728.3 451 685.7 451 642.8 451C600 451 557 451 514.2 451C471.3 451 428.7 451 385.8 451C343 451 300 451 257.2 451C214.3 451 171.7 451 128.8 451C86 451 43 451 21.5 451L0 451Z" fill="#08005e"></path></svg>