<svg xmlns="http://www.w3.org/2000/svg" xmlns:xlink="http://www.w3.org/1999/xlink" width="500" zoomAndPan="magnify" viewBox="0 0 375 374.999991" height="500" preserveAspectRatio="xMidYMid meet" version="1.0"><defs><clipPath id="a9f0fbdbd8"><path d="M 187.5 0 C 83.945312 0 0 83.945312 0 187.5 C 0 291.054688 83.945312 375 187.5 375 C 291.054688 375 375 291.054688 375 187.5 C 375 83.945312 291.054688 0 187.5 0 Z M 187.5 0 " clip-rule="nonzero"/></clipPath><clipPath id="a0152dcd39"><path d="M 37.5 37.5 L 337.5 37.5 L 337.5 337.5 L 37.5 337.5 Z M 37.5 37.5 " clip-rule="nonzero"/></clipPath><clipPath id="6ebdec805f"><path d="M 37.5 112.5 L 37.5 262.5 C 37.5 303.921875 71.078125 337.5 112.5 337.5 L 262.5 337.5 C 303.921875 337.5 337.5 303.921875 337.5 262.5 L 337.5 112.5 C 337.5 71.078125 303.921875 37.5 262.5 37.5 L 112.5 37.5 C 71.078125 37.5 37.5 71.078125 37.5 112.5 Z M 37.5 112.5 " clip-rule="nonzero"/></clipPath><clipPath id="8bddee1c92"><path d="M 67.5 120.320312 L 96.699219 120.320312 L 96.699219 268 L 67.5 268 Z M 67.5 120.320312 " clip-rule="nonzero"/></clipPath><clipPath id="56c150806f"><path d="M 37.5 112.5 L 37.5 262.5 C 37.5 303.921875 71.078125 337.5 112.5 337.5 L 262.5 337.5 C 303.921875 337.5 337.5 303.921875 337.5 262.5 L 337.5 112.5 C 337.5 71.078125 303.921875 37.5 262.5 37.5 L 112.5 37.5 C 71.078125 37.5 37.5 71.078125 37.5 112.5 Z M 37.5 112.5 " clip-rule="nonzero"/></clipPath><clipPath id="749551b9b9"><path d="M 95.050781 178.660156 L 155.757812 178.660156 L 155.757812 208.519531 L 95.050781 208.519531 Z M 95.050781 178.660156 " clip-rule="nonzero"/></clipPath><clipPath id="2f90ab9f4c"><path d="M 37.5 112.5 L 37.5 262.5 C 37.5 303.921875 71.078125 337.5 112.5 337.5 L 262.5 337.5 C 303.921875 337.5 337.5 303.921875 337.5 262.5 L 337.5 112.5 C 337.5 71.078125 303.921875 37.5 262.5 37.5 L 112.5 37.5 C 71.078125 37.5 37.5 71.078125 37.5 112.5 Z M 37.5 112.5 " clip-rule="nonzero"/></clipPath><clipPath id="d4d40bd216"><path d="M 126.230469 178.660156 L 155.757812 178.660156 L 155.757812 268.207031 L 126.230469 268.207031 Z M 126.230469 178.660156 " clip-rule="nonzero"/></clipPath><clipPath id="dc592d4998"><path d="M 37.5 112.5 L 37.5 262.5 C 37.5 303.921875 71.078125 337.5 112.5 337.5 L 262.5 337.5 C 303.921875 337.5 337.5 303.921875 337.5 262.5 L 337.5 112.5 C 337.5 71.078125 303.921875 37.5 262.5 37.5 L 112.5 37.5 C 71.078125 37.5 37.5 71.078125 37.5 112.5 Z M 37.5 112.5 " clip-rule="nonzero"/></clipPath><clipPath id="c044836641"><path d="M 126.558594 120.320312 L 155.757812 120.320312 L 155.757812 149.894531 L 126.558594 149.894531 Z M 126.558594 120.320312 " clip-rule="nonzero"/></clipPath><clipPath id="9acc017675"><path d="M 37.5 112.5 L 37.5 262.5 C 37.5 303.921875 71.078125 337.5 112.5 337.5 L 262.5 337.5 C 303.921875 337.5 337.5 303.921875 337.5 262.5 L 337.5 112.5 C 337.5 71.078125 303.921875 37.5 262.5 37.5 L 112.5 37.5 C 71.078125 37.5 37.5 71.078125 37.5 112.5 Z M 37.5 112.5 " clip-rule="nonzero"/></clipPath><clipPath id="23b9655efc"><path d="M 289.027344 178.792969 L 318.558594 178.792969 L 318.558594 208.652344 L 289.027344 208.652344 Z M 289.027344 178.792969 " clip-rule="nonzero"/></clipPath><clipPath id="65a1c41f29"><path d="M 37.5 112.5 L 37.5 262.5 C 37.5 303.921875 71.078125 337.5 112.5 337.5 L 262.5 337.5 C 303.921875 337.5 337.5 303.921875 337.5 262.5 L 337.5 112.5 C 337.5 71.078125 303.921875 37.5 262.5 37.5 L 112.5 37.5 C 71.078125 37.5 37.5 71.078125 37.5 112.5 Z M 37.5 112.5 " clip-rule="nonzero"/></clipPath><clipPath id="796bbd2dc8"><path d="M 289.027344 178.792969 L 318.558594 178.792969 L 318.558594 268.339844 L 289.027344 268.339844 Z M 289.027344 178.792969 " clip-rule="nonzero"/></clipPath><clipPath id="87aec91a86"><path d="M 37.5 112.5 L 37.5 262.5 C 37.5 303.921875 71.078125 337.5 112.5 337.5 L 262.5 337.5 C 303.921875 337.5 337.5 303.921875 337.5 262.5 L 337.5 112.5 C 337.5 71.078125 303.921875 37.5 262.5 37.5 L 112.5 37.5 C 71.078125 37.5 37.5 71.078125 37.5 112.5 Z M 37.5 112.5 " clip-rule="nonzero"/></clipPath><clipPath id="b458d8d20c"><path d="M 289.359375 120.453125 L 318.558594 120.453125 L 318.558594 150 L 289.359375 150 Z M 289.359375 120.453125 " clip-rule="nonzero"/></clipPath><clipPath id="9ff26ffaf2"><path d="M 37.5 112.5 L 37.5 262.5 C 37.5 303.921875 71.078125 337.5 112.5 337.5 L 262.5 337.5 C 303.921875 337.5 337.5 303.921875 337.5 262.5 L 337.5 112.5 C 337.5 71.078125 303.921875 37.5 262.5 37.5 L 112.5 37.5 C 71.078125 37.5 37.5 71.078125 37.5 112.5 Z M 37.5 112.5 " clip-rule="nonzero"/></clipPath><clipPath id="de7ccab6b8"><path d="M 171.945312 120.320312 L 190.246094 120.320312 L 190.246094 268 L 171.945312 268 Z M 171.945312 120.320312 " clip-rule="nonzero"/></clipPath><clipPath id="125d6ecd67"><path d="M 37.5 112.5 L 37.5 262.5 C 37.5 303.921875 71.078125 337.5 112.5 337.5 L 262.5 337.5 C 303.921875 337.5 337.5 303.921875 337.5 262.5 L 337.5 112.5 C 337.5 71.078125 303.921875 37.5 262.5 37.5 L 112.5 37.5 C 71.078125 37.5 37.5 71.078125 37.5 112.5 Z M 37.5 112.5 " clip-rule="nonzero"/></clipPath><clipPath id="84c4d20135"><path d="M 176.167969 120.167969 L 251 120.167969 L 251 229.5 L 176.167969 229.5 Z M 176.167969 120.167969 " clip-rule="nonzero"/></clipPath><clipPath id="3a8fb916ff"><path d="M 37.5 112.5 L 37.5 262.5 C 37.5 303.921875 71.078125 337.5 112.5 337.5 L 262.5 337.5 C 303.921875 337.5 337.5 303.921875 337.5 262.5 L 337.5 112.5 C 337.5 71.078125 303.921875 37.5 262.5 37.5 L 112.5 37.5 C 71.078125 37.5 37.5 71.078125 37.5 112.5 Z M 37.5 112.5 " clip-rule="nonzero"/></clipPath><clipPath id="f3d3304a1b"><path d="M 176.363281 129.660156 L 192.507812 120.128906 L 251.605469 220.238281 L 235.457031 229.769531 Z M 176.363281 129.660156 " clip-rule="nonzero"/></clipPath><clipPath id="8176465ca2"><path d="M 176.363281 129.660156 L 192.191406 120.320312 L 251.152344 220.203125 L 235.324219 229.542969 Z M 176.363281 129.660156 " clip-rule="nonzero"/></clipPath><clipPath id="a908eb6b84"><path d="M 238.167969 120.167969 L 303.5 120.167969 L 303.5 215.5 L 238.167969 215.5 Z M 238.167969 120.167969 " clip-rule="nonzero"/></clipPath><clipPath id="16231d6faf"><path d="M 37.5 112.5 L 37.5 262.5 C 37.5 303.921875 71.078125 337.5 112.5 337.5 L 262.5 337.5 C 303.921875 337.5 337.5 303.921875 337.5 262.5 L 337.5 112.5 C 337.5 71.078125 303.921875 37.5 262.5 37.5 L 112.5 37.5 C 71.078125 37.5 37.5 71.078125 37.5 112.5 Z M 37.5 112.5 " clip-rule="nonzero"/></clipPath><clipPath id="d55dbe06d6"><path d="M 288.394531 120.453125 L 303.03125 128.855469 L 253.082031 215.847656 L 238.449219 207.445312 Z M 288.394531 120.453125 " clip-rule="nonzero"/></clipPath><clipPath id="5952a0701a"><path d="M 288.394531 120.453125 L 303.019531 128.847656 L 253.269531 215.492188 L 238.648438 207.097656 Z M 288.394531 120.453125 " clip-rule="nonzero"/></clipPath><clipPath id="bb55a0cf2a"><path d="M 224.167969 208.167969 L 257.5 208.167969 L 257.5 238 L 224.167969 238 Z M 224.167969 208.167969 " clip-rule="nonzero"/></clipPath><clipPath id="56d4cbb91c"><path d="M 37.5 112.5 L 37.5 262.5 C 37.5 303.921875 71.078125 337.5 112.5 337.5 L 262.5 337.5 C 303.921875 337.5 337.5 303.921875 337.5 262.5 L 337.5 112.5 C 337.5 71.078125 303.921875 37.5 262.5 37.5 L 112.5 37.5 C 71.078125 37.5 37.5 71.078125 37.5 112.5 Z M 37.5 112.5 " clip-rule="nonzero"/></clipPath><clipPath id="52af88c4e3"><path d="M 256.527344 238.207031 L 223.507812 237.550781 L 224.082031 208.65625 L 257.105469 209.3125 Z M 256.527344 238.207031 " clip-rule="nonzero"/></clipPath><clipPath id="41569173c2"><path d="M 240.183594 237.878906 L 224.414062 208.660156 L 257.105469 209.3125 L 240.183594 237.878906 " clip-rule="nonzero"/></clipPath><clipPath id="71688d751a"><path d="M 179.597656 120.320312 L 192.335938 120.320312 L 192.335938 131.433594 L 179.597656 131.433594 Z M 179.597656 120.320312 " clip-rule="nonzero"/></clipPath><clipPath id="d177af702d"><path d="M 37.5 112.5 L 37.5 262.5 C 37.5 303.921875 71.078125 337.5 112.5 337.5 L 262.5 337.5 C 303.921875 337.5 337.5 303.921875 337.5 262.5 L 337.5 112.5 C 337.5 71.078125 303.921875 37.5 262.5 37.5 L 112.5 37.5 C 71.078125 37.5 37.5 71.078125 37.5 112.5 Z M 37.5 112.5 " clip-rule="nonzero"/></clipPath></defs><g clip-path="url(#a9f0fbdbd8)"><rect x="-37.5" width="450" fill="#f7d101" y="-37.499999" height="449.999989" fill-opacity="1"/></g><g clip-path="url(#a0152dcd39)"><g clip-path="url(#6ebdec805f)"><path fill="#f7d101" d="M 7.5 7.5 L 367.5 7.5 L 367.5 367.5 L 7.5 367.5 Z M 7.5 7.5 " fill-opacity="1" fill-rule="nonzero"/><path fill="#f7d101" d="M 7.5 7.5 L 367.5 7.5 L 367.5 367.5 L 7.5 367.5 Z M 7.5 7.5 " fill-opacity="1" fill-rule="nonzero"/><path fill="#f7d101" d="M 7.5 7.5 L 367.5 7.5 L 367.5 367.5 L 7.5 367.5 Z M 7.5 7.5 " fill-opacity="1" fill-rule="nonzero"/></g></g><g clip-path="url(#8bddee1c92)"><g clip-path="url(#56c150806f)"><path fill="#222222" d="M 67.5 120.320312 L 96.5625 120.320312 L 96.5625 267.976562 L 67.5 267.976562 Z M 67.5 120.320312 " fill-opacity="1" fill-rule="nonzero"/></g></g><g clip-path="url(#749551b9b9)"><g clip-path="url(#2f90ab9f4c)"><path fill="#222222" d="M 95.050781 178.660156 L 155.988281 178.660156 L 155.988281 208.660156 L 95.050781 208.660156 Z M 95.050781 178.660156 " fill-opacity="1" fill-rule="nonzero"/></g></g><g clip-path="url(#d4d40bd216)"><g clip-path="url(#dc592d4998)"><path fill="#222222" d="M 126.230469 178.660156 L 155.761719 178.660156 L 155.761719 268.191406 L 126.230469 268.191406 Z M 126.230469 178.660156 " fill-opacity="1" fill-rule="nonzero"/></g></g><g clip-path="url(#c044836641)"><g clip-path="url(#9acc017675)"><path fill="#222222" d="M 126.558594 120.320312 L 155.621094 120.320312 L 155.621094 149.851562 L 126.558594 149.851562 Z M 126.558594 120.320312 " fill-opacity="1" fill-rule="nonzero"/></g></g><g clip-path="url(#23b9655efc)"><g clip-path="url(#65a1c41f29)"><path fill="#222222" d="M 289.027344 178.792969 L 318.558594 178.792969 L 318.558594 208.792969 L 289.027344 208.792969 Z M 289.027344 178.792969 " fill-opacity="1" fill-rule="nonzero"/></g></g><g clip-path="url(#796bbd2dc8)"><g clip-path="url(#87aec91a86)"><path fill="#222222" d="M 289.027344 178.792969 L 318.558594 178.792969 L 318.558594 268.324219 L 289.027344 268.324219 Z M 289.027344 178.792969 " fill-opacity="1" fill-rule="nonzero"/></g></g><g clip-path="url(#b458d8d20c)"><g clip-path="url(#9ff26ffaf2)"><path fill="#222222" d="M 289.359375 120.453125 L 318.421875 120.453125 L 318.421875 149.984375 L 289.359375 149.984375 Z M 289.359375 120.453125 " fill-opacity="1" fill-rule="nonzero"/></g></g><g clip-path="url(#de7ccab6b8)"><g clip-path="url(#125d6ecd67)"><path fill="#222222" d="M 171.945312 120.320312 L 190.226562 120.320312 L 190.226562 267.976562 L 171.945312 267.976562 Z M 171.945312 120.320312 " fill-opacity="1" fill-rule="nonzero"/></g></g><g clip-path="url(#84c4d20135)"><g clip-path="url(#3a8fb916ff)"><g clip-path="url(#f3d3304a1b)"><g clip-path="url(#8176465ca2)"><path fill="#222222" d="M 176.363281 129.660156 L 192.105469 120.371094 L 250.964844 220.074219 L 235.21875 229.367188 Z M 176.363281 129.660156 " fill-opacity="1" fill-rule="nonzero"/></g></g></g></g><g clip-path="url(#a908eb6b84)"><g clip-path="url(#16231d6faf)"><g clip-path="url(#d55dbe06d6)"><g clip-path="url(#5952a0701a)"><path fill="#222222" d="M 288.394531 120.453125 L 303.03125 128.855469 L 253.316406 215.441406 L 238.683594 207.039062 Z M 288.394531 120.453125 " fill-opacity="1" fill-rule="nonzero"/></g></g></g></g><g clip-path="url(#bb55a0cf2a)"><g clip-path="url(#56d4cbb91c)"><g clip-path="url(#52af88c4e3)"><g clip-path="url(#41569173c2)"><path fill="#222222" d="M 256.527344 238.207031 L 223.851562 237.558594 L 224.425781 208.660156 L 257.105469 209.3125 Z M 256.527344 238.207031 " fill-opacity="1" fill-rule="nonzero"/></g></g></g></g><g clip-path="url(#71688d751a)"><g clip-path="url(#d177af702d)"><path fill="#222222" d="M 179.597656 120.320312 L 192.253906 120.320312 L 192.253906 131.570312 L 179.597656 131.570312 Z M 179.597656 120.320312 " fill-opacity="1" fill-rule="nonzero"/></g></g></svg>