<svg xmlns="http://www.w3.org/2000/svg" xmlns:xlink="http://www.w3.org/1999/xlink" width="500" zoomAndPan="magnify" viewBox="0 0 375 374.999991" height="500" preserveAspectRatio="xMidYMid meet" version="1.0"><defs><clipPath id="e6d1089377"><path d="M 213.648438 50.082031 L 367.398438 50.082031 L 367.398438 165.582031 L 213.648438 165.582031 Z M 213.648438 50.082031 " clip-rule="nonzero"/></clipPath><clipPath id="84dfe7abdb"><path d="M 213.648438 67 L 367.398438 67 L 367.398438 72 L 213.648438 72 Z M 213.648438 67 " clip-rule="nonzero"/></clipPath><clipPath id="72b24ee084"><path d="M 71.316406 71.316406 L 303.683594 71.316406 L 303.683594 303.683594 L 71.316406 303.683594 Z M 71.316406 71.316406 " clip-rule="nonzero"/></clipPath><clipPath id="78183ba2ff"><path d="M 187.5 71.316406 C 123.332031 71.316406 71.316406 123.332031 71.316406 187.5 C 71.316406 251.667969 123.332031 303.683594 187.5 303.683594 C 251.667969 303.683594 303.683594 251.667969 303.683594 187.5 C 303.683594 123.332031 251.667969 71.316406 187.5 71.316406 " clip-rule="nonzero"/></clipPath><clipPath id="2107407a6b"><path d="M 48.691406 278.28125 L 100.441406 278.28125 L 100.441406 331.53125 L 48.691406 331.53125 Z M 48.691406 278.28125 " clip-rule="nonzero"/></clipPath><clipPath id="c71d2aa98c"><path d="M 71.316406 71.316406 L 303.683594 71.316406 L 303.683594 303.683594 L 71.316406 303.683594 Z M 71.316406 71.316406 " clip-rule="nonzero"/></clipPath><clipPath id="b9ce0e78c4"><path d="M 187.5 71.316406 C 123.332031 71.316406 71.316406 123.332031 71.316406 187.5 C 71.316406 251.667969 123.332031 303.683594 187.5 303.683594 C 251.667969 303.683594 303.683594 251.667969 303.683594 187.5 C 303.683594 123.332031 251.667969 71.316406 187.5 71.316406 " clip-rule="nonzero"/></clipPath><clipPath id="25da7194b9"><path d="M 110.261719 141.027344 L 129.097656 141.027344 L 129.097656 236.4375 L 110.261719 236.4375 Z M 110.261719 141.027344 " clip-rule="nonzero"/></clipPath><clipPath id="b83f0bd673"><path d="M 128.035156 178.664062 L 167.199219 178.664062 L 167.199219 197.925781 L 128.035156 197.925781 Z M 128.035156 178.664062 " clip-rule="nonzero"/></clipPath><clipPath id="aed3b071d8"><path d="M 148.148438 178.664062 L 167.199219 178.664062 L 167.199219 236.4375 L 148.148438 236.4375 Z M 148.148438 178.664062 " clip-rule="nonzero"/></clipPath><clipPath id="c913a58372"><path d="M 148.363281 141.027344 L 167.199219 141.027344 L 167.199219 160.105469 L 148.363281 160.105469 Z M 148.363281 141.027344 " clip-rule="nonzero"/></clipPath><clipPath id="ae4e5884fa"><path d="M 253.175781 178.75 L 272.230469 178.75 L 272.230469 198.011719 L 253.175781 198.011719 Z M 253.175781 178.75 " clip-rule="nonzero"/></clipPath><clipPath id="9af1ff68b7"><path d="M 253.175781 178.75 L 272.230469 178.75 L 272.230469 236.523438 L 253.175781 236.523438 Z M 253.175781 178.75 " clip-rule="nonzero"/></clipPath><clipPath id="018b7d4fd3"><path d="M 253.390625 141.113281 L 272.230469 141.113281 L 272.230469 160.191406 L 253.390625 160.191406 Z M 253.390625 141.113281 " clip-rule="nonzero"/></clipPath><clipPath id="926c6672ec"><path d="M 177.644531 141.027344 L 189.449219 141.027344 L 189.449219 236.4375 L 177.644531 236.4375 Z M 177.644531 141.027344 " clip-rule="nonzero"/></clipPath><clipPath id="152c8b96b1"><path d="M 180 141 L 229 141 L 229 212 L 180 212 Z M 180 141 " clip-rule="nonzero"/></clipPath><clipPath id="ce45590999"><path d="M 180.492188 147.054688 L 190.910156 140.902344 L 229.035156 205.488281 L 218.617188 211.636719 Z M 180.492188 147.054688 " clip-rule="nonzero"/></clipPath><clipPath id="de28be8e31"><path d="M 180.492188 147.054688 L 190.703125 141.027344 L 228.742188 205.464844 L 218.53125 211.492188 Z M 180.492188 147.054688 " clip-rule="nonzero"/></clipPath><clipPath id="636dde7ab9"><path d="M 220 141 L 263 141 L 263 203 L 220 203 Z M 220 141 " clip-rule="nonzero"/></clipPath><clipPath id="11f6da7e78"><path d="M 252.773438 141.113281 L 262.214844 146.535156 L 229.988281 202.65625 L 220.546875 197.234375 Z M 252.773438 141.113281 " clip-rule="nonzero"/></clipPath><clipPath id="8e3cca0a10"><path d="M 252.773438 141.113281 L 262.207031 146.527344 L 230.109375 202.425781 L 220.675781 197.007812 Z M 252.773438 141.113281 " clip-rule="nonzero"/></clipPath><clipPath id="21e9a42dfa"><path d="M 211 198 L 233 198 L 233 217 L 211 217 Z M 211 198 " clip-rule="nonzero"/></clipPath><clipPath id="939f944849"><path d="M 232.210938 217.078125 L 210.910156 216.65625 L 211.28125 198.015625 L 232.582031 198.4375 Z M 232.210938 217.078125 " clip-rule="nonzero"/></clipPath><clipPath id="9940438e8f"><path d="M 221.667969 216.871094 L 211.492188 198.019531 L 232.582031 198.4375 L 221.667969 216.871094 " clip-rule="nonzero"/></clipPath><clipPath id="e0ae099e6f"><path d="M 182.582031 141.027344 L 190.796875 141.027344 L 190.796875 148.199219 L 182.582031 148.199219 Z M 182.582031 141.027344 " clip-rule="nonzero"/></clipPath><clipPath id="a91a3b0535"><path d="M 104.578125 278.863281 L 155.578125 278.863281 L 155.578125 331.363281 L 104.578125 331.363281 Z M 104.578125 278.863281 " clip-rule="nonzero"/></clipPath><clipPath id="30ebf42984"><path d="M 48.691406 218.855469 L 98.191406 218.855469 L 98.191406 269.855469 L 48.691406 269.855469 Z M 48.691406 218.855469 " clip-rule="nonzero"/></clipPath></defs><path fill="#f14953" d="M 226.550781 60.476562 C 226.550781 61.832031 225.453125 62.933594 224.097656 62.933594 C 222.742188 62.933594 221.648438 61.832031 221.648438 60.476562 C 221.648438 59.121094 222.742188 58.019531 224.097656 58.019531 C 225.453125 58.019531 226.550781 59.121094 226.550781 60.476562 " fill-opacity="1" fill-rule="nonzero"/><path fill="#efd77a" d="M 233.460938 60.476562 C 233.460938 61.832031 232.363281 62.933594 231.007812 62.933594 C 229.65625 62.933594 228.558594 61.832031 228.558594 60.476562 C 228.558594 59.121094 229.65625 58.019531 231.007812 58.019531 C 232.363281 58.019531 233.460938 59.121094 233.460938 60.476562 " fill-opacity="1" fill-rule="nonzero"/><path fill="#79b061" d="M 240.816406 60.476562 C 240.816406 61.832031 239.71875 62.933594 238.363281 62.933594 C 237.011719 62.933594 235.914062 61.832031 235.914062 60.476562 C 235.914062 59.121094 237.011719 58.019531 238.363281 58.019531 C 239.71875 58.019531 240.816406 59.121094 240.816406 60.476562 " fill-opacity="1" fill-rule="nonzero"/><g clip-path="url(#e6d1089377)"><path fill="#ffffff" d="M 363.363281 158.492188 C 363.25 161.148438 361.066406 161.617188 358.984375 161.617188 L 225.652344 161.617188 C 222.839844 161.617188 217.683594 162.5 217.683594 158.273438 L 217.683594 57.523438 C 217.683594 55.398438 219.148438 54.070312 221.214844 54.070312 L 358.773438 54.070312 C 360.5 54.070312 362.355469 54.039062 363.144531 56.023438 C 363.59375 57.148438 363.363281 58.75 363.363281 59.925781 L 363.363281 158.492188 C 363.363281 161.054688 367.324219 161.054688 367.324219 158.492188 L 367.324219 58.257812 C 367.324219 54.636719 365.769531 51.472656 362.054688 50.335938 C 360.902344 49.984375 359.515625 50.101562 358.3125 50.101562 C 356.300781 50.101562 354.285156 50.101562 352.273438 50.101562 L 221.011719 50.101562 C 216.984375 50.101562 213.722656 53.25 213.722656 57.320312 L 213.722656 158.03125 C 213.722656 162.070312 216.613281 165.585938 220.832031 165.585938 L 359.867188 165.585938 C 363.972656 165.585938 367.144531 162.636719 367.320312 158.492188 C 367.429688 155.933594 363.46875 155.949219 363.359375 158.492188 " fill-opacity="1" fill-rule="nonzero"/></g><g clip-path="url(#84dfe7abdb)"><path fill="#ffffff" d="M 215.703125 71.308594 L 365.34375 71.308594 C 367.898438 71.308594 367.898438 67.339844 365.34375 67.339844 L 215.707031 67.339844 C 213.152344 67.339844 213.152344 71.308594 215.707031 71.308594 " fill-opacity="1" fill-rule="nonzero"/></g><path fill="#ffffff" d="M 233.460938 150.226562 L 347.074219 150.226562 L 347.074219 83.359375 L 233.460938 83.359375 Z M 233.460938 150.226562 " fill-opacity="1" fill-rule="nonzero"/><g clip-path="url(#72b24ee084)"><g clip-path="url(#78183ba2ff)"><path fill="#f7d101" d="M 71.316406 71.316406 L 303.683594 71.316406 L 303.683594 303.683594 L 71.316406 303.683594 Z M 71.316406 71.316406 " fill-opacity="1" fill-rule="nonzero"/></g></g><g clip-path="url(#2107407a6b)"><path fill="#ffffff" d="M 74.636719 331.453125 C 74.328125 331.457031 74.027344 331.40625 73.730469 331.308594 L 56.53125 325.570312 C 56.011719 325.398438 55.578125 325.101562 55.230469 324.679688 C 54.882812 324.261719 54.671875 323.78125 54.597656 323.238281 L 48.863281 281.625 C 48.832031 281.421875 48.828125 281.21875 48.84375 281.015625 C 48.859375 280.808594 48.894531 280.609375 48.953125 280.410156 C 49.011719 280.214844 49.089844 280.027344 49.1875 279.847656 C 49.289062 279.667969 49.40625 279.5 49.539062 279.34375 C 49.671875 279.191406 49.824219 279.050781 49.988281 278.929688 C 50.152344 278.804688 50.328125 278.703125 50.511719 278.617188 C 50.699219 278.53125 50.894531 278.46875 51.09375 278.425781 C 51.292969 278.382812 51.496094 278.359375 51.703125 278.359375 L 97.574219 278.359375 C 97.777344 278.359375 97.980469 278.382812 98.183594 278.425781 C 98.382812 278.46875 98.574219 278.53125 98.761719 278.617188 C 98.949219 278.703125 99.125 278.804688 99.289062 278.929688 C 99.453125 279.050781 99.601562 279.1875 99.734375 279.34375 C 99.871094 279.5 99.988281 279.664062 100.085938 279.84375 C 100.183594 280.023438 100.261719 280.210938 100.320312 280.410156 C 100.378906 280.605469 100.417969 280.804688 100.433594 281.011719 C 100.449219 281.214844 100.441406 281.417969 100.414062 281.621094 L 94.679688 323.234375 C 94.605469 323.777344 94.394531 324.257812 94.046875 324.679688 C 93.699219 325.101562 93.265625 325.398438 92.746094 325.570312 L 75.542969 331.308594 C 75.25 331.40625 74.949219 331.457031 74.636719 331.453125 Z M 60.035156 320.691406 L 74.636719 325.558594 L 89.242188 320.679688 L 94.285156 284.097656 L 55 284.097656 Z M 60.035156 320.691406 " fill-opacity="1" fill-rule="nonzero"/></g><path fill="#ffffff" d="M 70.335938 318.539062 C 69.886719 318.539062 69.457031 318.4375 69.054688 318.234375 L 63.320312 315.367188 C 62.980469 315.195312 62.683594 314.96875 62.4375 314.679688 C 62.1875 314.390625 62 314.066406 61.882812 313.707031 C 61.761719 313.34375 61.714844 312.972656 61.742188 312.59375 C 61.769531 312.214844 61.867188 311.855469 62.035156 311.515625 C 62.207031 311.171875 62.4375 310.878906 62.722656 310.628906 C 63.011719 310.378906 63.335938 310.195312 63.695312 310.074219 C 64.058594 309.953125 64.425781 309.90625 64.808594 309.933594 C 65.1875 309.960938 65.546875 310.0625 65.886719 310.230469 L 67.46875 311.027344 L 67.46875 295.578125 L 61.738281 295.578125 C 61.355469 295.578125 60.992188 295.507812 60.640625 295.359375 C 60.289062 295.214844 59.976562 295.007812 59.710938 294.738281 C 59.441406 294.46875 59.234375 294.160156 59.085938 293.808594 C 58.941406 293.457031 58.871094 293.089844 58.871094 292.710938 C 58.871094 292.328125 58.941406 291.960938 59.085938 291.609375 C 59.234375 291.257812 59.441406 290.949219 59.710938 290.679688 C 59.976562 290.410156 60.289062 290.203125 60.640625 290.058594 C 60.992188 289.914062 61.355469 289.839844 61.738281 289.839844 L 70.335938 289.839844 C 70.71875 289.839844 71.082031 289.914062 71.433594 290.058594 C 71.785156 290.203125 72.097656 290.410156 72.363281 290.679688 C 72.632812 290.949219 72.839844 291.257812 72.988281 291.609375 C 73.132812 291.960938 73.203125 292.328125 73.203125 292.710938 L 73.203125 315.667969 C 73.203125 316.050781 73.132812 316.414062 72.988281 316.765625 C 72.839844 317.117188 72.632812 317.429688 72.363281 317.699219 C 72.097656 317.96875 71.785156 318.175781 71.433594 318.320312 C 71.082031 318.464844 70.71875 318.539062 70.335938 318.539062 Z M 70.335938 318.539062 " fill-opacity="1" fill-rule="nonzero"/><path fill="#ffffff" d="M 78.9375 318.539062 C 78.589844 318.539062 78.25 318.476562 77.925781 318.351562 C 77.597656 318.226562 77.300781 318.050781 77.039062 317.816406 C 76.777344 317.585938 76.566406 317.316406 76.402344 317.003906 C 76.242188 316.695312 76.140625 316.367188 76.097656 316.019531 C 76.054688 315.671875 76.074219 315.328125 76.15625 314.988281 C 76.238281 314.648438 76.378906 314.332031 76.578125 314.046875 C 76.777344 313.757812 77.019531 313.511719 77.304688 313.3125 C 77.59375 313.113281 77.90625 312.96875 78.246094 312.886719 L 82.117188 311.917969 L 82.800781 307.058594 L 80.371094 307.058594 C 80.089844 307.058594 79.808594 307.03125 79.53125 306.976562 C 79.257812 306.921875 78.988281 306.839844 78.726562 306.730469 C 78.464844 306.625 78.21875 306.492188 77.984375 306.332031 C 77.75 306.175781 77.53125 306 77.332031 305.796875 C 77.132812 305.597656 76.953125 305.382812 76.796875 305.144531 C 76.640625 304.910156 76.507812 304.664062 76.398438 304.402344 C 76.289062 304.140625 76.210938 303.871094 76.152344 303.59375 C 76.097656 303.316406 76.070312 303.035156 76.070312 302.753906 L 76.070312 294.144531 C 76.070312 293.863281 76.097656 293.582031 76.152344 293.304688 C 76.210938 293.027344 76.289062 292.757812 76.398438 292.496094 C 76.507812 292.234375 76.640625 291.988281 76.796875 291.753906 C 76.953125 291.519531 77.132812 291.300781 77.332031 291.101562 C 77.53125 290.898438 77.75 290.722656 77.984375 290.566406 C 78.21875 290.40625 78.464844 290.273438 78.726562 290.167969 C 78.988281 290.058594 79.257812 289.976562 79.53125 289.921875 C 79.808594 289.867188 80.089844 289.839844 80.371094 289.839844 L 87.539062 289.839844 C 87.921875 289.839844 88.285156 289.914062 88.636719 290.058594 C 88.988281 290.203125 89.296875 290.410156 89.566406 290.679688 C 89.835938 290.949219 90.042969 291.257812 90.1875 291.609375 C 90.335938 291.960938 90.40625 292.328125 90.40625 292.710938 C 90.40625 293.089844 90.335938 293.457031 90.1875 293.808594 C 90.042969 294.160156 89.835938 294.46875 89.566406 294.738281 C 89.296875 295.007812 88.988281 295.214844 88.636719 295.359375 C 88.285156 295.507812 87.921875 295.578125 87.539062 295.578125 L 81.804688 295.578125 L 81.804688 301.320312 L 84.453125 301.320312 C 84.734375 301.320312 85.015625 301.347656 85.289062 301.402344 C 85.566406 301.457031 85.835938 301.539062 86.097656 301.648438 C 86.359375 301.753906 86.605469 301.886719 86.839844 302.042969 C 87.074219 302.203125 87.292969 302.378906 87.492188 302.582031 C 87.691406 302.78125 87.871094 302.996094 88.027344 303.234375 C 88.183594 303.46875 88.316406 303.714844 88.425781 303.976562 C 88.535156 304.238281 88.613281 304.507812 88.667969 304.785156 C 88.726562 305.0625 88.753906 305.339844 88.753906 305.625 C 88.753906 305.832031 88.738281 306.039062 88.707031 306.242188 L 87.511719 314.640625 C 87.429688 315.214844 87.191406 315.722656 86.800781 316.15625 C 86.410156 316.589844 85.933594 316.875 85.367188 317.019531 L 79.632812 318.453125 C 79.40625 318.511719 79.175781 318.539062 78.9375 318.539062 Z M 83.035156 305.421875 Z M 83.035156 305.421875 " fill-opacity="1" fill-rule="nonzero"/><g clip-path="url(#c71d2aa98c)"><g clip-path="url(#b9ce0e78c4)"><path fill="#f7d101" d="M 71.316406 71.316406 L 303.683594 71.316406 L 303.683594 303.683594 L 71.316406 303.683594 Z M 71.316406 71.316406 " fill-opacity="1" fill-rule="nonzero"/></g></g><g clip-path="url(#25da7194b9)"><path fill="#222222" d="M 110.261719 141.027344 L 129.011719 141.027344 L 129.011719 236.285156 L 110.261719 236.285156 Z M 110.261719 141.027344 " fill-opacity="1" fill-rule="nonzero"/></g><g clip-path="url(#b83f0bd673)"><path fill="#222222" d="M 128.035156 178.664062 L 167.351562 178.664062 L 167.351562 198.019531 L 128.035156 198.019531 Z M 128.035156 178.664062 " fill-opacity="1" fill-rule="nonzero"/></g><g clip-path="url(#aed3b071d8)"><path fill="#222222" d="M 148.148438 178.664062 L 167.203125 178.664062 L 167.203125 236.425781 L 148.148438 236.425781 Z M 148.148438 178.664062 " fill-opacity="1" fill-rule="nonzero"/></g><g clip-path="url(#c913a58372)"><path fill="#222222" d="M 148.363281 141.027344 L 167.113281 141.027344 L 167.113281 160.078125 L 148.363281 160.078125 Z M 148.363281 141.027344 " fill-opacity="1" fill-rule="nonzero"/></g><g clip-path="url(#ae4e5884fa)"><path fill="#222222" d="M 253.175781 178.75 L 272.230469 178.75 L 272.230469 198.105469 L 253.175781 198.105469 Z M 253.175781 178.75 " fill-opacity="1" fill-rule="nonzero"/></g><g clip-path="url(#9af1ff68b7)"><path fill="#222222" d="M 253.175781 178.75 L 272.230469 178.75 L 272.230469 236.511719 L 253.175781 236.511719 Z M 253.175781 178.75 " fill-opacity="1" fill-rule="nonzero"/></g><g clip-path="url(#018b7d4fd3)"><path fill="#222222" d="M 253.390625 141.113281 L 272.140625 141.113281 L 272.140625 160.164062 L 253.390625 160.164062 Z M 253.390625 141.113281 " fill-opacity="1" fill-rule="nonzero"/></g><g clip-path="url(#926c6672ec)"><path fill="#222222" d="M 177.644531 141.027344 L 189.4375 141.027344 L 189.4375 236.285156 L 177.644531 236.285156 Z M 177.644531 141.027344 " fill-opacity="1" fill-rule="nonzero"/></g><g clip-path="url(#152c8b96b1)"><g clip-path="url(#ce45590999)"><g clip-path="url(#de28be8e31)"><path fill="#222222" d="M 180.492188 147.054688 L 190.648438 141.058594 L 228.621094 205.382812 L 218.464844 211.378906 Z M 180.492188 147.054688 " fill-opacity="1" fill-rule="nonzero"/></g></g></g><g clip-path="url(#636dde7ab9)"><g clip-path="url(#11f6da7e78)"><g clip-path="url(#8e3cca0a10)"><path fill="#222222" d="M 252.773438 141.113281 L 262.214844 146.535156 L 230.140625 202.394531 L 220.699219 196.972656 Z M 252.773438 141.113281 " fill-opacity="1" fill-rule="nonzero"/></g></g></g><g clip-path="url(#21e9a42dfa)"><g clip-path="url(#939f944849)"><g clip-path="url(#9940438e8f)"><path fill="#222222" d="M 232.210938 217.078125 L 211.128906 216.660156 L 211.5 198.019531 L 232.582031 198.4375 Z M 232.210938 217.078125 " fill-opacity="1" fill-rule="nonzero"/></g></g></g><g clip-path="url(#e0ae099e6f)"><path fill="#222222" d="M 182.582031 141.027344 L 190.746094 141.027344 L 190.746094 148.285156 L 182.582031 148.285156 Z M 182.582031 141.027344 " fill-opacity="1" fill-rule="nonzero"/></g><g clip-path="url(#a91a3b0535)"><path fill="#ffffff" d="M 130.148438 331.285156 C 129.84375 331.285156 129.546875 331.238281 129.253906 331.144531 L 112.304688 325.484375 C 111.792969 325.316406 111.367188 325.023438 111.023438 324.609375 C 110.679688 324.195312 110.46875 323.722656 110.398438 323.1875 L 104.746094 282.164062 C 104.71875 281.960938 104.710938 281.761719 104.726562 281.558594 C 104.742188 281.359375 104.777344 281.160156 104.835938 280.964844 C 104.894531 280.773438 104.972656 280.585938 105.070312 280.410156 C 105.164062 280.234375 105.28125 280.066406 105.414062 279.914062 C 105.546875 279.761719 105.691406 279.625 105.855469 279.503906 C 106.015625 279.382812 106.191406 279.28125 106.375 279.199219 C 106.558594 279.113281 106.75 279.050781 106.945312 279.007812 C 107.144531 278.964844 107.34375 278.941406 107.542969 278.941406 L 152.753906 278.941406 C 152.953125 278.941406 153.152344 278.964844 153.351562 279.007812 C 153.546875 279.050781 153.738281 279.113281 153.921875 279.195312 C 154.105469 279.28125 154.277344 279.382812 154.441406 279.503906 C 154.601562 279.625 154.75 279.761719 154.882812 279.914062 C 155.015625 280.066406 155.128906 280.230469 155.226562 280.40625 C 155.324219 280.585938 155.402344 280.769531 155.460938 280.964844 C 155.515625 281.15625 155.554688 281.355469 155.570312 281.554688 C 155.585938 281.757812 155.578125 281.957031 155.550781 282.160156 L 149.898438 323.183594 C 149.828125 323.71875 149.621094 324.191406 149.277344 324.605469 C 148.933594 325.023438 148.503906 325.316406 147.996094 325.484375 L 131.042969 331.144531 C 130.75 331.238281 130.453125 331.285156 130.148438 331.285156 Z M 115.753906 320.675781 L 130.148438 325.472656 L 144.542969 320.664062 L 149.511719 284.601562 L 110.792969 284.601562 Z M 115.753906 320.675781 " fill-opacity="1" fill-rule="nonzero"/></g><path fill="#ffffff" d="M 130.148438 319.261719 C 129.871094 319.261719 129.601562 319.222656 129.335938 319.140625 L 122.273438 317.019531 C 121.773438 316.871094 121.347656 316.601562 120.996094 316.214844 C 120.644531 315.828125 120.417969 315.378906 120.316406 314.867188 L 120.03125 313.449219 C 119.960938 313.09375 119.957031 312.738281 120.023438 312.378906 C 120.089844 312.023438 120.222656 311.691406 120.417969 311.382812 C 120.609375 311.074219 120.855469 310.816406 121.148438 310.601562 C 121.445312 310.390625 121.765625 310.238281 122.121094 310.152344 C 122.472656 310.0625 122.828125 310.042969 123.1875 310.09375 C 123.546875 310.144531 123.886719 310.257812 124.199219 310.4375 C 124.515625 310.617188 124.789062 310.851562 125.011719 311.136719 C 125.238281 311.417969 125.40625 311.734375 125.507812 312.085938 L 130.148438 313.476562 L 134.667969 312.121094 L 135.367188 307.234375 L 127.324219 307.234375 C 126.734375 307.238281 126.199219 307.070312 125.714844 306.738281 C 125.230469 306.40625 124.882812 305.960938 124.671875 305.410156 C 124.464844 304.859375 124.429688 304.300781 124.570312 303.726562 C 124.714844 303.15625 125.003906 302.675781 125.445312 302.285156 L 132.605469 295.917969 L 120.257812 295.917969 C 119.886719 295.917969 119.523438 295.847656 119.179688 295.703125 C 118.832031 295.558594 118.527344 295.355469 118.261719 295.089844 C 117.996094 294.824219 117.792969 294.519531 117.648438 294.171875 C 117.503906 293.824219 117.433594 293.464844 117.433594 293.089844 C 117.433594 292.714844 117.503906 292.355469 117.648438 292.007812 C 117.792969 291.660156 117.996094 291.355469 118.261719 291.089844 C 118.527344 290.824219 118.832031 290.621094 119.179688 290.476562 C 119.523438 290.332031 119.886719 290.261719 120.257812 290.261719 L 140.039062 290.261719 C 140.625 290.257812 141.164062 290.425781 141.648438 290.757812 C 142.132812 291.09375 142.480469 291.535156 142.6875 292.085938 C 142.898438 292.636719 142.929688 293.199219 142.789062 293.769531 C 142.648438 294.339844 142.355469 294.820312 141.914062 295.210938 L 134.753906 301.578125 L 138.625 301.578125 C 138.828125 301.578125 139.027344 301.597656 139.226562 301.640625 C 139.421875 301.683594 139.613281 301.75 139.796875 301.832031 C 139.984375 301.917969 140.15625 302.019531 140.316406 302.140625 C 140.480469 302.261719 140.628906 302.398438 140.761719 302.554688 C 140.890625 302.707031 141.007812 302.871094 141.105469 303.050781 C 141.203125 303.226562 141.277344 303.414062 141.335938 303.609375 C 141.394531 303.800781 141.429688 304 141.445312 304.203125 C 141.457031 304.40625 141.449219 304.605469 141.421875 304.808594 L 140.007812 314.710938 C 139.933594 315.253906 139.714844 315.738281 139.355469 316.15625 C 138.996094 316.574219 138.550781 316.863281 138.023438 317.019531 L 130.960938 319.140625 C 130.695312 319.222656 130.425781 319.261719 130.148438 319.261719 Z M 130.148438 319.261719 " fill-opacity="1" fill-rule="nonzero"/><g clip-path="url(#30ebf42984)"><path fill="#ffffff" d="M 73.511719 269.773438 C 73.214844 269.773438 72.925781 269.730469 72.644531 269.636719 L 56.1875 264.140625 C 55.695312 263.976562 55.28125 263.691406 54.945312 263.289062 C 54.613281 262.886719 54.410156 262.425781 54.339844 261.910156 L 48.855469 222.0625 C 48.828125 221.871094 48.820312 221.675781 48.835938 221.476562 C 48.851562 221.28125 48.886719 221.089844 48.941406 220.902344 C 48.996094 220.714844 49.074219 220.535156 49.167969 220.359375 C 49.261719 220.1875 49.375 220.027344 49.503906 219.878906 C 49.632812 219.734375 49.773438 219.601562 49.929688 219.480469 C 50.089844 219.363281 50.257812 219.265625 50.433594 219.183594 C 50.613281 219.101562 50.796875 219.039062 50.988281 219 C 51.179688 218.957031 51.375 218.9375 51.570312 218.9375 L 95.449219 218.9375 C 95.644531 218.9375 95.839844 218.957031 96.03125 219 C 96.222656 219.039062 96.40625 219.101562 96.585938 219.183594 C 96.761719 219.265625 96.929688 219.363281 97.085938 219.480469 C 97.246094 219.597656 97.386719 219.730469 97.515625 219.878906 C 97.644531 220.027344 97.757812 220.1875 97.851562 220.359375 C 97.945312 220.53125 98.019531 220.710938 98.078125 220.898438 C 98.132812 221.085938 98.167969 221.277344 98.183594 221.476562 C 98.199219 221.671875 98.191406 221.867188 98.164062 222.058594 L 92.679688 261.90625 C 92.609375 262.421875 92.40625 262.882812 92.074219 263.289062 C 91.742188 263.691406 91.328125 263.972656 90.832031 264.140625 L 74.375 269.636719 C 74.09375 269.730469 73.804688 269.773438 73.511719 269.773438 Z M 59.539062 259.46875 L 73.511719 264.128906 L 87.480469 259.457031 L 92.300781 224.433594 L 54.726562 224.433594 Z M 59.539062 259.46875 " fill-opacity="1" fill-rule="nonzero"/></g><path fill="#ffffff" d="M 73.511719 258.09375 C 73.242188 258.09375 72.980469 258.054688 72.722656 257.980469 L 65.867188 255.917969 C 65.378906 255.773438 64.96875 255.511719 64.625 255.136719 C 64.285156 254.761719 64.066406 254.324219 63.964844 253.824219 L 63.691406 252.453125 C 63.621094 252.105469 63.621094 251.757812 63.683594 251.410156 C 63.75 251.0625 63.875 250.742188 64.0625 250.441406 C 64.253906 250.144531 64.488281 249.890625 64.777344 249.6875 C 65.0625 249.480469 65.375 249.332031 65.71875 249.246094 C 66.058594 249.164062 66.40625 249.144531 66.753906 249.191406 C 67.101562 249.238281 67.429688 249.351562 67.738281 249.527344 C 68.042969 249.699219 68.304688 249.925781 68.527344 250.203125 C 68.746094 250.480469 68.90625 250.785156 69.007812 251.125 L 73.511719 252.476562 L 77.898438 251.160156 L 78.574219 246.417969 L 65.28125 246.417969 C 64.949219 246.414062 64.625 246.355469 64.3125 246.238281 C 64 246.121094 63.71875 245.949219 63.46875 245.726562 C 63.21875 245.507812 63.015625 245.246094 62.859375 244.953125 C 62.703125 244.65625 62.605469 244.339844 62.5625 244.007812 L 61.191406 233.015625 C 61.140625 232.625 61.175781 232.242188 61.292969 231.867188 C 61.40625 231.488281 61.597656 231.152344 61.855469 230.859375 C 62.117188 230.5625 62.425781 230.332031 62.785156 230.171875 C 63.144531 230.007812 63.519531 229.929688 63.910156 229.929688 L 83.109375 229.929688 C 83.472656 229.929688 83.820312 230 84.15625 230.136719 C 84.492188 230.277344 84.789062 230.476562 85.046875 230.734375 C 85.304688 230.992188 85.503906 231.289062 85.640625 231.625 C 85.78125 231.960938 85.851562 232.3125 85.851562 232.675781 C 85.851562 233.039062 85.78125 233.390625 85.640625 233.726562 C 85.503906 234.066406 85.304688 234.363281 85.046875 234.621094 C 84.789062 234.878906 84.492188 235.074219 84.15625 235.214844 C 83.820312 235.355469 83.472656 235.425781 83.109375 235.425781 L 67.019531 235.425781 L 67.703125 240.921875 L 81.738281 240.921875 C 81.933594 240.921875 82.128906 240.941406 82.320312 240.984375 C 82.511719 241.023438 82.695312 241.085938 82.875 241.167969 C 83.054688 241.25 83.222656 241.351562 83.378906 241.46875 C 83.539062 241.585938 83.679688 241.71875 83.808594 241.867188 C 83.9375 242.015625 84.050781 242.175781 84.144531 242.351562 C 84.238281 242.523438 84.3125 242.703125 84.367188 242.890625 C 84.421875 243.082031 84.457031 243.273438 84.472656 243.46875 C 84.488281 243.667969 84.480469 243.863281 84.453125 244.058594 L 83.082031 253.675781 C 83.003906 254.203125 82.792969 254.671875 82.445312 255.078125 C 82.097656 255.484375 81.667969 255.765625 81.15625 255.917969 L 74.296875 257.980469 C 74.042969 258.054688 73.777344 258.09375 73.511719 258.09375 Z M 73.511719 258.09375 " fill-opacity="1" fill-rule="nonzero"/></svg>